<svg width="23" height="25" viewBox="0 0 23 25" fill="none" xmlns="http://www.w3.org/2000/svg">
<path d="M15.6038 7.8125C14.9315 3.45215 13.3456 0.390625 11.5 0.390625C9.65444 0.390625 8.06855 3.45215 7.39617 7.8125H15.6038ZM7.04839 12.5C7.04839 13.584 7.10403 14.624 7.20141 15.625H15.794C15.8913 14.624 15.947 13.584 15.947 12.5C15.947 11.416 15.8913 10.376 15.794 9.375H7.20141C7.10403 10.376 7.04839 11.416 7.04839 12.5ZM22.105 7.8125C20.7788 4.49707 18.094 1.93359 14.7784 0.898438C15.9099 2.54883 16.6889 5.03418 17.097 7.8125H22.105ZM8.21694 0.898438C4.90605 1.93359 2.21653 4.49707 0.89496 7.8125H5.90302C6.30645 5.03418 7.08548 2.54883 8.21694 0.898438ZM22.6012 9.375H17.2825C17.3798 10.4004 17.4355 11.4502 17.4355 12.5C17.4355 13.5498 17.3798 14.5996 17.2825 15.625H22.5966C22.8516 14.624 22.9954 13.584 22.9954 12.5C22.9954 11.416 22.8516 10.376 22.6012 9.375ZM5.56452 12.5C5.56452 11.4502 5.62016 10.4004 5.71754 9.375H0.39879C0.148387 10.376 0 11.416 0 12.5C0 13.584 0.148387 14.624 0.39879 15.625H5.7129C5.62016 14.5996 5.56452 13.5498 5.56452 12.5ZM7.39617 17.1875C8.06855 21.5479 9.65444 24.6094 11.5 24.6094C13.3456 24.6094 14.9315 21.5479 15.6038 17.1875H7.39617ZM14.7831 24.1016C18.094 23.0664 20.7835 20.5029 22.1097 17.1875H17.1016C16.6935 19.9658 15.9145 22.4512 14.7831 24.1016ZM0.89496 17.1875C2.22117 20.5029 4.90605 23.0664 8.22157 24.1016C7.09012 22.4512 6.31109 19.9658 5.90302 17.1875H0.89496Z" fill="#832E0A"/>
</svg>
