<svg width="342" height="302" viewBox="0 0 342 302" fill="none" xmlns="http://www.w3.org/2000/svg">
<path d="M261.218 187.97C257.013 192.102 243.494 196.076 243.494 196.076C242.611 195.728 241.725 195.35 240.854 194.956C235.2 192.394 230.131 189.14 230.131 189.14C230.131 189.14 227.644 186.838 228.568 183.599C228.568 183.599 230.334 179.516 233.617 179.953C236.9 180.389 252.199 179.783 252.199 179.783C252.199 179.783 256.493 175.65 259.732 176.664C262.972 177.677 265.424 183.836 261.218 187.97Z" fill="#006DC3"/>
<path d="M238.507 188.266C239.851 189.02 240.497 190.423 239.95 191.401C239.402 192.378 237.868 192.56 236.523 191.807C235.179 191.054 234.533 189.65 235.081 188.673C235.629 187.695 237.163 187.513 238.507 188.266Z" fill="white"/>
<path d="M237.888 192.628C237.378 192.58 236.846 192.418 236.34 192.135C235.62 191.732 235.056 191.144 234.751 190.481C234.427 189.777 234.427 189.069 234.753 188.489C235.078 187.908 235.681 187.538 236.451 187.447C237.176 187.361 237.972 187.535 238.691 187.938C240.214 188.791 240.926 190.427 240.278 191.584C239.845 192.357 238.913 192.724 237.888 192.628ZM237.065 188.189C236.886 188.172 236.71 188.174 236.54 188.194C236.015 188.256 235.614 188.491 235.409 188.856C235.205 189.221 235.214 189.686 235.435 190.166C235.674 190.687 236.126 191.152 236.707 191.478C237.869 192.129 239.176 192.011 239.621 191.216C240.067 190.421 239.484 189.245 238.323 188.595C237.916 188.366 237.483 188.228 237.065 188.189Z" fill="#2D2A2A"/>
<path d="M232.52 184.868C232.314 184.849 232.162 184.666 232.181 184.459C232.2 184.252 232.383 184.1 232.59 184.119C232.716 184.13 245.336 185.259 252.671 183.117C252.871 183.059 253.079 183.173 253.138 183.372C253.196 183.572 253.082 183.781 252.882 183.839C245.409 186.022 233.044 184.916 232.521 184.868L232.52 184.868Z" fill="#2D2A2A"/>
<path d="M261.218 187.97C257.013 192.102 243.494 196.076 243.494 196.076C242.611 195.728 241.726 195.35 240.855 194.956C247.006 193.52 256.074 188.424 256.074 188.424C250.17 185.464 252.199 179.783 252.199 179.783C252.199 179.783 256.493 175.65 259.732 176.664C262.973 177.677 265.424 183.836 261.218 187.97Z" fill="white"/>
<path d="M243.459 196.451C243.424 196.447 243.389 196.439 243.356 196.426C242.495 196.086 241.601 195.707 240.7 195.299C240.553 195.232 240.465 195.079 240.48 194.919C240.496 194.758 240.612 194.626 240.769 194.589C245.894 193.393 253.168 189.575 255.289 188.425C249.916 185.274 251.824 179.714 251.845 179.657C251.864 179.602 251.896 179.552 251.938 179.512C252.12 179.337 256.431 175.237 259.845 176.305C261.581 176.848 263.058 178.669 263.607 180.946C264.253 183.619 263.478 186.277 261.482 188.239C257.258 192.388 244.156 196.274 243.6 196.437C243.554 196.451 243.506 196.455 243.459 196.451ZM241.995 195.049C242.508 195.271 243.015 195.481 243.511 195.678C244.876 195.267 257.076 191.513 260.955 187.702C262.757 185.93 263.457 183.532 262.876 181.123C262.394 179.129 261.086 177.481 259.62 177.023C256.835 176.151 253.069 179.492 252.526 179.993C252.301 180.706 251.028 185.473 256.243 188.087C256.368 188.15 256.447 188.275 256.451 188.415C256.454 188.554 256.38 188.683 256.259 188.751C256.173 188.8 248.063 193.337 241.995 195.049ZM261.219 187.97L261.22 187.97L261.219 187.97Z" fill="#2D2A2A"/>
<path d="M224.464 183.417L230.324 186.199C230.324 186.199 233.848 185.46 233.241 181.404L227.512 177.557L224.464 183.417Z" fill="#A24B4B"/>
<path d="M230.289 186.574C230.245 186.57 230.202 186.558 230.162 186.539L224.303 183.757C224.211 183.713 224.14 183.633 224.107 183.537C224.075 183.44 224.083 183.334 224.13 183.243L227.179 177.383C227.228 177.288 227.316 177.219 227.42 177.192C227.523 177.165 227.634 177.185 227.722 177.244L233.451 181.092C233.539 181.15 233.598 181.244 233.613 181.348C234.265 185.706 230.44 186.56 230.401 186.568C230.364 186.575 230.326 186.577 230.289 186.574ZM224.978 183.244L230.363 185.801C230.928 185.64 233.28 184.776 232.891 181.622L227.652 178.104L224.978 183.244Z" fill="#2D2A2A"/>
<path d="M229.898 174.155C229.898 174.155 229.236 181.793 223.258 185.557L196.198 171.81C184.516 165.227 187.395 153.714 198.392 151.154C199.04 151.003 201.39 152.688 204.51 154.886C213.754 161.398 229.898 174.155 229.898 174.155Z" fill="#006DC3"/>
<path d="M223.778 178.787C223.717 178.786 223.654 178.769 223.597 178.736L197.341 163.46L197.277 162.693C197.378 162.662 197.486 162.674 197.577 162.727L223.976 178.085C224.155 178.19 224.216 178.42 224.112 178.6C224.04 178.722 223.911 178.79 223.778 178.787Z" fill="#2D2A2A"/>
<path d="M222.062 182.834C221.94 182.831 221.821 182.77 221.751 182.659C221.64 182.483 221.693 182.251 221.869 182.14C225.808 179.652 226.825 173.966 226.834 173.909C226.87 173.704 227.062 173.566 227.269 173.601C227.474 173.637 227.611 173.831 227.576 174.035C227.534 174.282 226.497 180.107 222.271 182.776C222.206 182.817 222.133 182.836 222.062 182.834Z" fill="#2D2A2A"/>
<path d="M195.605 171.733C195.605 171.733 164.873 183.084 154.381 186.812C143.89 190.541 118.075 174.763 138.556 164.893C138.556 164.893 175.773 155.791 191.564 152.403C195.36 151.587 197.917 151.103 198.425 151.153C198.519 151.163 198.732 151.324 199.026 151.594C199.864 152.36 200.772 153.281 201.639 154.329C206.788 160.549 210.165 165.907 195.605 171.733Z" fill="#006DC3"/>
<path d="M197 163.422L152.654 175.602C152.453 175.657 152.246 175.539 152.192 175.338C152.137 175.138 152.255 174.931 152.456 174.876L196.96 162.653C197.061 162.625 197.169 162.64 197.258 162.696L197 163.422Z" fill="#2D2A2A"/>
<path d="M196.16 169.866C196.148 169.865 196.136 169.865 196.123 169.863C195.917 169.84 195.77 169.673 195.795 169.491L197.222 159.155C197.247 158.974 197.435 158.846 197.641 158.868C197.847 158.892 197.994 159.058 197.969 159.24L196.542 169.576C196.519 169.747 196.352 169.871 196.16 169.866Z" fill="#2D2A2A"/>
<path d="M223.666 178.36L197.065 162.985" stroke="#2D2A2A" stroke-width="4" stroke-linecap="round" stroke-linejoin="round"/>
<path d="M205.517 293.207C199.628 293.483 186.901 287.434 186.901 287.434C186.475 286.586 186.067 285.714 185.681 284.84C183.174 279.161 181.564 273.357 181.564 273.357C181.564 273.357 181.245 269.983 184.092 268.184C184.092 268.184 188.131 266.318 190.287 268.832C192.443 271.346 204.251 281.092 204.251 281.092C204.251 281.092 210.207 280.874 211.946 283.789C213.686 286.704 211.407 292.929 205.517 293.207Z" fill="#006DC3"/>
<path d="M188.39 278.289C188.89 279.746 188.436 281.223 187.376 281.587C186.316 281.95 185.051 281.063 184.551 279.605C184.051 278.148 184.506 276.671 185.566 276.308C186.625 275.944 187.89 276.831 188.39 278.289Z" fill="white"/>
<path d="M187.003 282.039C185.876 282.105 184.689 281.166 184.196 279.728C183.928 278.948 183.899 278.134 184.114 277.436C184.342 276.695 184.814 276.168 185.443 275.952C186.073 275.735 186.769 275.862 187.404 276.307C188.002 276.727 188.479 277.387 188.746 278.167C189.014 278.946 189.043 279.76 188.828 280.458C188.6 281.2 188.128 281.726 187.498 281.942C187.336 281.998 187.17 282.03 187.003 282.039ZM185.991 276.605C185.887 276.611 185.786 276.63 185.688 276.664C185.292 276.799 184.989 277.152 184.833 277.657C184.665 278.204 184.691 278.853 184.908 279.483C185.339 280.742 186.393 281.525 187.254 281.231C187.65 281.095 187.953 280.742 188.109 280.237C188.277 279.69 188.251 279.041 188.034 278.411C187.818 277.78 187.441 277.252 186.972 276.923C186.646 276.695 186.307 276.586 185.991 276.605Z" fill="#2D2A2A"/>
<path d="M200.914 285.305C200.853 285.309 200.79 285.298 200.731 285.269C193.705 281.915 185.225 272.848 184.867 272.464C184.725 272.312 184.734 272.073 184.886 271.932C185.038 271.79 185.277 271.799 185.418 271.951C185.505 272.044 194.159 281.298 201.055 284.59C201.242 284.68 201.322 284.904 201.232 285.092C201.171 285.22 201.047 285.298 200.914 285.305Z" fill="#2D2A2A"/>
<path d="M203.875 282.181C203.807 282.185 203.737 282.171 203.673 282.136C196.957 278.46 188.464 270.095 188.379 270.011C188.232 269.865 188.23 269.627 188.376 269.479C188.522 269.331 188.761 269.33 188.909 269.476C188.993 269.559 197.412 277.85 204.034 281.475C204.217 281.575 204.283 281.804 204.184 281.986C204.119 282.105 204 282.174 203.875 282.181Z" fill="#2D2A2A"/>
<path d="M205.517 293.207C199.628 293.483 186.901 287.434 186.901 287.434C186.475 286.586 186.067 285.714 185.681 284.84C191.224 287.87 201.38 290.116 201.38 290.116C198.952 283.975 204.251 281.092 204.251 281.092C204.251 281.092 210.207 280.874 211.946 283.789C213.686 286.704 211.407 292.929 205.517 293.207Z" fill="white"/>
<path d="M205.626 293.578C205.596 293.58 205.566 293.581 205.535 293.583C199.62 293.86 187.263 288.023 186.74 287.774C186.665 287.738 186.603 287.678 186.566 287.603C186.149 286.774 185.736 285.895 185.337 284.991C185.272 284.844 185.308 284.672 185.427 284.563C185.546 284.454 185.72 284.432 185.862 284.509C190.48 287.035 198.447 289.036 200.794 289.594C198.89 283.663 204.018 280.791 204.072 280.761C204.123 280.734 204.179 280.718 204.238 280.715C204.49 280.706 210.438 280.525 212.27 283.596C213.202 285.157 213.088 287.5 211.98 289.563C210.694 291.959 208.381 293.419 205.626 293.578ZM205.5 292.831C208.025 292.72 210.145 291.391 211.317 289.207C212.287 287.4 212.41 285.3 211.623 283.982C210.129 281.476 205.094 281.455 204.355 281.466C203.713 281.847 199.586 284.553 201.731 289.977C201.782 290.107 201.757 290.254 201.667 290.36C201.577 290.466 201.435 290.513 201.3 290.483C201.203 290.462 192.133 288.438 186.469 285.67C186.704 286.176 186.941 286.671 187.18 287.149C188.471 287.752 200.068 293.086 205.5 292.831Z" fill="#2D2A2A"/>
<path d="M180.969 265.758L183.482 271.738C183.482 271.738 186.601 273.537 188.853 270.108L187.147 263.422L180.969 265.758Z" fill="#A24B4B"/>
<path d="M185.656 272.572C184.337 272.648 183.313 272.075 183.294 272.064C183.223 272.023 183.167 271.96 183.135 271.884L180.622 265.904C180.582 265.81 180.583 265.703 180.623 265.609C180.664 265.516 180.74 265.442 180.836 265.406L187.015 263.07C187.115 263.032 187.226 263.039 187.321 263.088C187.416 263.137 187.486 263.225 187.512 263.329L189.218 270.015C189.244 270.118 189.226 270.226 189.168 270.315C188.067 271.991 186.758 272.508 185.656 272.572ZM183.776 271.467C184.305 271.724 186.635 272.647 188.447 270.038L186.887 263.923L181.467 265.972L183.776 271.467Z" fill="#2D2A2A"/>
<path d="M161.014 224.591L125.003 187.119C125.003 187.119 117.318 172.59 127.874 166.053C138.43 159.517 147.931 172.225 147.931 172.225L172.741 208.516L177.236 215.088C174.151 222.043 171.684 229.599 164.61 226.846L161.014 224.591Z" fill="#006DC3"/>
<path d="M151.501 180.506L152.626 173.592L146.243 163.47" fill="#006DC3"/>
<path d="M156.253 184.752C156.128 184.757 156.003 184.699 155.928 184.588L147.621 172.438C147.606 172.418 145.132 169.145 141.392 166.838C141.215 166.729 141.161 166.497 141.27 166.32C141.379 166.143 141.61 166.088 141.787 166.198C145.653 168.582 148.129 171.862 148.233 172L156.549 184.164C156.666 184.335 156.622 184.569 156.451 184.687C156.39 184.728 156.321 184.75 156.253 184.752Z" fill="#2D2A2A"/>
<path d="M152.069 178.633C152.043 178.634 152.017 178.633 151.991 178.628C151.786 178.593 151.649 178.399 151.684 178.194L152.266 174.801C152.402 174.009 152.232 173.204 151.786 172.534L146.318 164.322C146.203 164.149 146.25 163.916 146.423 163.8C146.596 163.685 146.83 163.732 146.945 163.905L152.413 172.117C152.965 172.947 153.177 173.946 153.008 174.928L152.426 178.321C152.395 178.5 152.243 178.627 152.069 178.633Z" fill="#2D2A2A"/>
<path d="M164.765 223.026L128.315 182.597C128.176 182.442 128.188 182.205 128.342 182.065C128.497 181.926 128.735 181.938 128.874 182.093L165.372 222.576C165.404 222.611 165.429 222.652 165.445 222.697C165.539 222.951 164.765 223.026 164.765 223.026Z" fill="#2D2A2A"/>
<path d="M190.752 262.168C186.128 269.616 177.857 266.529 177.857 266.529C172.839 256.294 161.014 224.592 161.014 224.592L169.319 220.204L177.236 215.088L179.874 224.274L190.752 262.168Z" fill="#006DC3"/>
<path d="M181.167 264.319C179.322 264.386 177.982 264.097 177.859 264.069C177.657 264.023 177.53 263.822 177.575 263.62C177.621 263.417 177.822 263.289 178.025 263.335C178.09 263.349 184.583 264.743 188.795 260.398C188.94 260.249 189.178 260.245 189.328 260.39C189.477 260.535 189.48 260.773 189.336 260.922C186.791 263.547 183.555 264.232 181.167 264.319Z" fill="#2D2A2A"/>
<path d="M165.052 222.94L179.776 261.377" stroke="#2D2A2A" stroke-width="5" stroke-linecap="round" stroke-linejoin="round"/>
<path d="M161.775 224.815C161.632 224.821 161.493 224.744 161.425 224.608C161.332 224.422 161.407 224.196 161.592 224.103L168.002 220.888C168.188 220.795 168.414 220.87 168.507 221.056C168.6 221.242 168.525 221.468 168.34 221.561L161.93 224.776C161.88 224.801 161.827 224.814 161.775 224.815Z" fill="#2D2A2A"/>
<path d="M131.775 114.321C131.775 114.321 161.659 128.939 163.387 136.303C165.115 143.667 153.229 145.681 142.356 136.585C131.483 127.489 131.775 114.321 131.775 114.321Z" fill="#FFB400"/>
<path d="M155.575 134.689C154.524 135.396 154.946 137.521 156.076 139.97C157.205 142.419 162.789 141.375 163.201 140.341C163.614 139.307 162.591 135.879 161.714 135.047C160.837 134.215 156.878 133.814 155.575 134.689Z" fill="#A24B4B"/>
<path d="M161.105 141.699C160.562 141.798 159.989 141.85 159.45 141.848C157.567 141.842 156.248 141.227 155.736 140.117C154.773 138.029 153.925 135.338 155.358 134.375C156.778 133.421 160.963 133.827 161.966 134.779C162.931 135.694 164.04 139.262 163.55 140.49C163.326 141.052 162.288 141.485 161.105 141.699ZM155.791 135.003C155.027 135.517 155.26 137.319 156.415 139.823C156.942 140.966 158.696 141.095 159.426 141.098C161.193 141.104 162.726 140.505 162.852 140.191C163.188 139.347 162.252 136.066 161.46 135.315C160.742 134.634 157 134.191 155.791 135.003Z" fill="#2D2A2A"/>
<path d="M152.944 135.294C151.461 135.831 152.977 139.285 153.768 140.9C154.56 142.515 157.197 142.676 156.609 140.385C156.021 138.093 154.71 134.654 152.944 135.294Z" fill="#A24B4B"/>
<path d="M155.94 142.457C155.095 142.61 153.956 142.125 153.432 141.055C152.154 138.449 151.696 136.638 152.07 135.673C152.207 135.318 152.461 135.065 152.805 134.941C153.262 134.775 153.72 134.814 154.167 135.056C155.696 135.885 156.638 139.002 156.971 140.304C157.37 141.859 156.448 142.303 156.156 142.402C156.087 142.425 156.014 142.444 155.94 142.457ZM153.082 135.648C152.932 135.702 152.834 135.802 152.771 135.965C152.487 136.697 152.973 138.438 154.103 140.744C154.477 141.506 155.356 141.872 155.893 141.69C156.426 141.509 156.343 140.845 156.245 140.466C155.749 138.533 154.854 136.27 153.828 135.713C153.575 135.576 153.337 135.554 153.082 135.648Z" fill="#2D2A2A"/>
<path d="M125.878 192.25C125.878 192.25 136.289 174.187 161.753 157.755L146.701 146.716C146.701 146.716 143.188 129.75 131.773 114.321C131.773 114.321 121.989 111.844 116.344 112.346C110.7 112.848 102.672 124.89 102.672 124.89C102.672 124.89 107.94 158.133 111.202 169.172C114.463 180.211 125.878 192.25 125.878 192.25Z" fill="#FFB400"/>
<path d="M123.82 131.548C123.644 131.548 123.49 131.526 123.376 131.475C123.148 131.373 122.95 131.286 121.573 126.364C120.916 124.012 120.302 121.653 120.296 121.63C120.244 121.429 120.364 121.223 120.565 121.171C120.767 121.119 120.972 121.24 121.024 121.44C122.085 125.52 123.369 130.067 123.748 130.797C124.008 130.815 124.757 130.693 125.345 130.363C125.653 130.19 125.848 129.997 125.893 129.817C126.01 129.25 124.792 124.763 123.546 120.753C123.484 120.555 123.595 120.344 123.794 120.282C123.992 120.221 124.203 120.331 124.265 120.53C124.879 122.507 126.865 129.032 126.623 130C126.514 130.434 126.139 130.818 125.537 131.112C125.028 131.36 124.328 131.548 123.82 131.548Z" fill="#2D2A2A"/>
<path d="M124.749 186.73C124.668 186.73 124.586 186.704 124.518 186.651C124.354 186.523 124.324 186.287 124.452 186.123C124.613 185.915 140.784 165.28 157.226 156.903C157.411 156.808 157.638 156.882 157.732 157.067C157.827 157.252 157.753 157.479 157.568 157.573C141.273 165.875 125.206 186.379 125.046 186.585C124.972 186.68 124.861 186.73 124.749 186.73Z" fill="#2D2A2A"/>
<path d="M143.877 137.659C143.723 137.659 143.579 137.564 143.523 137.411C141.605 132.105 138.188 124.153 132.803 116.403C132.684 116.232 132.726 115.998 132.897 115.879C133.067 115.76 133.302 115.803 133.421 115.973C138.853 123.79 142.297 131.807 144.231 137.155C144.302 137.35 144.201 137.566 144.005 137.637C143.963 137.652 143.92 137.659 143.877 137.659Z" fill="#2D2A2A"/>
<path d="M125.47 115.686C125.33 117.804 123.5 119.445 123.5 119.445C123.116 118.282 121.9 116.353 120.645 114.764C120.645 114.764 120.126 117.592 119.789 119.974C118.402 120.265 112.81 120.231 111.252 116.971C111.252 116.971 111.51 109.947 118.212 109.452C121.097 109.237 124.549 111.902 125.47 115.686Z" fill="white"/>
<path d="M118.268 120.468C115.943 120.468 112.209 119.845 110.913 117.133C110.886 117.078 110.874 117.017 110.876 116.957C110.879 116.883 111.227 109.59 118.184 109.077C121.414 108.837 124.917 111.822 125.835 115.597C125.844 115.634 125.847 115.672 125.845 115.71C125.697 117.956 123.83 119.654 123.751 119.725C123.656 119.81 123.525 119.841 123.402 119.808C123.28 119.776 123.182 119.683 123.142 119.563C122.839 118.646 121.955 117.145 120.865 115.671C120.686 116.689 120.383 118.463 120.162 120.026C120.139 120.183 120.021 120.309 119.866 120.342C119.526 120.414 118.959 120.468 118.268 120.468ZM111.634 116.893C113.052 119.663 117.863 119.853 119.455 119.647C119.789 117.345 120.27 114.723 120.275 114.695C120.302 114.55 120.411 114.434 120.554 114.398C120.698 114.362 120.849 114.414 120.94 114.53C121.927 115.78 123.066 117.479 123.635 118.761C124.142 118.184 124.981 117.044 125.09 115.717C124.147 111.957 120.796 109.636 118.24 109.827C115.602 110.022 113.69 111.279 112.556 113.564C111.813 115.06 111.661 116.521 111.634 116.893Z" fill="#2D2A2A"/>
<path d="M134.085 147.472L137.205 146.551C137.205 146.551 141.756 142.345 142.617 141.603C143.479 140.861 149.38 144.816 149.665 145.375C149.949 145.934 149.526 146.72 148.932 146.839C148.932 146.839 150.2 149.065 148.955 151.65C147.71 154.234 143.366 151.028 143.366 151.028C143.366 151.028 141.476 154.391 140.021 154.52C138.566 154.649 135.035 153.176 135.035 153.176L134.085 147.472Z" fill="#A24B4B"/>
<path d="M148.868 147.21C148.819 147.202 148.772 147.184 148.728 147.155L144.006 144.106C143.832 143.993 143.782 143.76 143.895 143.586C144.007 143.411 144.24 143.361 144.415 143.474L149.136 146.523C149.311 146.636 149.361 146.869 149.248 147.044C149.164 147.174 149.012 147.235 148.868 147.21Z" fill="#2D2A2A"/>
<path d="M138.993 154.819C137.307 154.526 135.009 153.573 134.89 153.523C134.77 153.473 134.685 153.365 134.663 153.237L133.713 147.534C133.682 147.346 133.796 147.165 133.978 147.111L137.014 146.214C137.594 145.679 141.561 142.016 142.372 141.318C142.58 141.138 142.889 141.092 143.309 141.174C145.173 141.541 149.68 144.577 150 145.204C150.183 145.564 150.176 146.004 149.979 146.409C149.853 146.671 149.663 146.886 149.438 147.031C149.762 147.809 150.317 149.69 149.294 151.813C149.001 152.421 148.539 152.807 147.921 152.96C146.389 153.34 144.301 152.107 143.485 151.568C142.922 152.496 141.408 154.775 140.054 154.895C139.76 154.921 139.394 154.889 138.993 154.819ZM135.371 152.907C136.461 153.347 138.938 154.238 139.987 154.145C140.903 154.064 142.344 152.077 143.037 150.843C143.09 150.749 143.181 150.682 143.286 150.66C143.392 150.637 143.502 150.661 143.589 150.725C144.305 151.252 146.446 152.551 147.74 152.229C148.136 152.131 148.422 151.888 148.616 151.486C149.756 149.121 148.652 147.109 148.605 147.025C148.546 146.92 148.54 146.792 148.59 146.683C148.64 146.573 148.74 146.494 148.858 146.47C149.033 146.435 149.203 146.286 149.302 146.082C149.393 145.893 149.403 145.692 149.329 145.546C148.858 144.87 143.595 141.569 142.849 141.898C142.017 142.617 137.506 146.785 137.46 146.827C137.418 146.866 137.367 146.895 137.312 146.911L134.511 147.739L135.371 152.907Z" fill="#2D2A2A"/>
<path d="M115.023 166.16C114.709 166.356 109.122 174.127 106.01 169.254C104.141 166.322 102.47 161.49 101.12 153.958C97.5297 133.907 102.671 124.889 102.671 124.889C106.233 123.167 114.75 126.036 115.338 134.334C115.925 142.632 118.301 152.046 118.301 152.046C118.301 152.046 121.372 162.191 115.023 166.16Z" fill="#FFB400"/>
<path d="M118.432 152.399C118.332 152.434 118.221 152.429 118.126 152.379C118.032 152.33 117.963 152.242 117.937 152.138C117.913 152.044 115.545 142.596 114.962 134.36C114.706 130.735 112.916 128.498 111.459 127.259C109.471 125.568 106.719 124.606 104.449 124.813C104.242 124.831 104.059 124.679 104.04 124.472C104.022 124.265 104.174 124.082 104.381 124.064C106.88 123.838 109.779 124.842 111.947 126.686C113.513 128.018 115.438 130.422 115.713 134.307C116.222 141.507 118.11 149.651 118.566 151.546C118.566 151.546 118.761 152.284 118.432 152.399Z" fill="#2D2A2A"/>
<path d="M137.488 154.315C137.488 154.315 123.509 167.557 117.048 171.34C116.728 171.527 116.427 171.691 116.146 171.83C112.435 173.66 108.762 173.923 105.794 168.962C101.89 157.301 118.23 152.36 118.23 152.36L134.782 146.625L137.488 154.315Z" fill="#FFB400"/>
<path d="M117.066 171.128C117.061 171.2 117.056 171.269 117.048 171.34C116.728 171.528 116.427 171.692 116.146 171.83C112.435 173.66 108.763 173.924 105.794 168.962C106.668 167.055 108.937 165.77 111.518 165.915C114.734 166.097 117.218 168.431 117.066 171.128Z" fill="white"/>
<path d="M117.986 171.122C117.87 171.115 117.759 171.056 117.691 170.951C117.578 170.777 117.628 170.544 117.802 170.431C124.047 166.376 135.489 155.679 137.052 154.21L134.551 147.101L118.41 152.675C118.309 152.709 118.198 152.699 118.105 152.647C118.012 152.594 117.945 152.505 117.922 152.4C117.903 152.315 117.82 152.041 118.364 151.877C118.556 151.819 118.75 151.766 118.94 151.701L134.661 146.268C134.856 146.202 135.069 146.305 135.137 146.5L137.843 154.191C137.892 154.331 137.854 154.487 137.747 154.589C137.619 154.709 124.948 166.689 118.212 171.062C118.142 171.107 118.063 171.126 117.986 171.122Z" fill="#2D2A2A"/>
<path d="M132.735 156.183C132.613 156.176 132.497 156.11 132.431 155.998C130.561 152.817 130.745 149.128 130.754 148.972C130.766 148.765 130.944 148.606 131.151 148.618L131.151 148.618C131.358 148.63 131.517 148.807 131.506 149.014C131.504 149.05 131.328 152.637 133.08 155.616C133.185 155.795 133.125 156.026 132.946 156.131C132.88 156.17 132.806 156.187 132.735 156.183Z" fill="#2D2A2A"/>
<path d="M135.598 153.297C135.566 153.868 135.078 154.305 134.507 154.272C133.936 154.24 133.5 153.752 133.532 153.181C133.564 152.61 134.053 152.174 134.624 152.206C135.194 152.238 135.631 152.727 135.598 153.297Z" fill="white"/>
<path d="M134.485 154.648C133.708 154.604 133.112 153.937 133.156 153.16C133.2 152.383 133.867 151.786 134.644 151.83C135.421 151.874 136.018 152.542 135.974 153.319C135.93 154.096 135.262 154.692 134.485 154.648ZM134.602 152.582C134.239 152.561 133.928 152.839 133.907 153.202C133.887 153.565 134.165 153.876 134.528 153.897C134.89 153.917 135.202 153.639 135.222 153.276C135.243 152.914 134.964 152.602 134.602 152.582Z" fill="#2D2A2A"/>
<path d="M112.375 163.481C112.346 163.479 112.316 163.474 112.286 163.465C112.088 163.404 111.975 163.194 112.036 162.995C112.103 162.775 113.722 157.558 117.495 153.175C117.63 153.018 117.868 153 118.025 153.136C118.183 153.271 118.201 153.509 118.065 153.666C114.399 157.925 112.772 163.162 112.756 163.215C112.704 163.384 112.544 163.49 112.375 163.481Z" fill="#2D2A2A"/>
<path d="M114.421 101.175L114.54 105.304L114.742 112.368C117.123 114.024 119.434 114.194 121.66 112.515L121.326 109.234L120.82 104.264L114.421 101.175Z" fill="#A24B4B"/>
<path d="M118.232 114.067C117.032 114.022 115.795 113.559 114.528 112.677C114.43 112.609 114.37 112.498 114.366 112.379L114.045 101.185C114.042 101.054 114.107 100.93 114.217 100.858C114.327 100.787 114.467 100.779 114.585 100.836L120.984 103.925C121.102 103.982 121.181 104.096 121.195 104.226L122.034 112.477C122.047 112.607 121.991 112.736 121.886 112.815C120.717 113.697 119.495 114.115 118.232 114.067ZM115.113 112.165C117.326 113.644 119.341 113.701 121.263 112.338L120.467 104.512L114.816 101.782L115.113 112.165Z" fill="#2D2A2A"/>
<path d="M126.994 101.817C126.564 105.205 125.475 109.241 121.416 108.505C116.591 107.628 113.547 104.124 113.62 99.5127C113.694 94.902 115.886 92.3569 121.393 93.0265C121.884 93.0863 122.345 93.1823 122.777 93.3102C125.931 94.2476 127.461 96.921 127.184 100.004C127.134 100.562 127.077 101.178 126.994 101.817Z" fill="#A24B4B"/>
<path d="M122.085 108.961C121.847 108.949 121.601 108.92 121.348 108.874C119.38 108.517 117.628 107.709 116.281 106.539C116.124 106.403 116.107 106.165 116.243 106.008C116.38 105.851 116.617 105.834 116.774 105.971C118.019 107.052 119.647 107.8 121.483 108.134C122.599 108.336 123.503 108.169 124.247 107.623C125.858 106.442 126.373 103.716 126.62 101.769C126.702 101.134 126.758 100.532 126.809 99.9701C127.083 96.9244 125.496 94.5103 122.669 93.6702C122.47 93.6109 122.356 93.4012 122.416 93.2021C122.475 93.0028 122.685 92.8901 122.883 92.9488C126.075 93.8971 127.866 96.6133 127.559 100.037C127.51 100.582 127.45 101.217 127.367 101.865C127.102 103.949 126.537 106.877 124.692 108.23C123.96 108.767 123.085 109.012 122.085 108.961Z" fill="#2D2A2A"/>
<path d="M112.157 100.341C112.157 100.341 112.823 101.389 113.675 102.276L116.115 102.49L116.68 100.774C116.68 100.774 118.232 100.745 118.58 99.7066C118.58 99.7066 119.049 97.7721 118.879 95.3909C118.879 95.3909 120.819 89.3627 116.704 89.8834C111.686 90.5187 112.842 93.9937 112.842 93.9937C112.842 93.9937 109.135 95.0806 112.157 100.341Z" fill="#2D2A2A"/>
<path d="M115.591 102.213C115.85 100.293 114.543 98.4695 112.624 98.1988C112.233 98.1437 111.823 98.1524 111.403 98.2544C109.001 98.8372 109.485 104.407 115.333 104.133L115.591 102.213Z" fill="#A24B4B"/>
<path d="M114.508 104.508C111.542 104.358 109.963 102.615 109.706 100.825C109.502 99.3991 110.178 98.1644 111.314 97.8887C111.754 97.7817 112.212 97.7609 112.676 97.826C114.779 98.1227 116.254 100.114 115.964 102.264C115.936 102.47 115.745 102.615 115.541 102.586C115.335 102.558 115.19 102.369 115.218 102.163C115.453 100.422 114.265 98.8106 112.571 98.5714C112.202 98.5195 111.839 98.5358 111.491 98.6201C110.74 98.8023 110.303 99.6844 110.451 100.718C110.666 102.215 112.068 103.909 115.315 103.757C115.521 103.746 115.698 103.908 115.708 104.116C115.718 104.323 115.557 104.499 115.35 104.509C115.058 104.523 114.777 104.522 114.508 104.508Z" fill="#2D2A2A"/>
<path d="M115.681 94.6705C117.585 95.1137 119.451 95.7041 121.273 96.4127C122.383 96.8447 123.66 97.276 124.587 97.398C125.262 97.4872 126.05 97.271 126.802 96.9427C128.421 96.2353 129.83 94.233 129.846 92.4665C129.848 92.2382 129.835 92.0079 129.802 91.7779C129.432 89.2029 128.051 90.9448 128.051 90.9448C128.051 90.9448 127.721 88.8707 126.432 88.6891C125.138 88.5079 124.27 90.394 124.27 90.394C124.27 90.394 120.819 89.363 116.705 89.8838C111.686 90.519 112.842 93.9939 112.842 93.9939C112.842 93.9939 114.061 94.2935 115.681 94.6705Z" fill="#2D2A2A"/>
<path d="M187.815 128.387L169.573 140.924C168.494 141.666 167.017 141.393 166.276 140.313C165.534 139.234 165.807 137.757 166.887 137.015L185.128 124.479C186.208 123.737 187.684 124.01 188.426 125.09C189.167 126.169 188.894 127.645 187.815 128.387Z" fill="white"/>
<path d="M168.237 141.719C168.069 141.719 167.899 141.703 167.73 141.672C167.009 141.538 166.382 141.131 165.967 140.526C165.551 139.922 165.395 139.191 165.529 138.469C165.663 137.748 166.07 137.121 166.675 136.705L184.916 124.168C185.521 123.753 186.251 123.598 186.973 123.731C187.695 123.865 188.321 124.272 188.737 124.877C189.153 125.481 189.308 126.212 189.174 126.934C189.04 127.655 188.634 128.282 188.029 128.698L169.787 141.235C169.324 141.553 168.787 141.719 168.237 141.719ZM186.468 124.437C186.068 124.437 185.679 124.557 185.342 124.789L167.101 137.326C166.194 137.949 165.963 139.193 166.587 140.1C166.888 140.539 167.343 140.835 167.867 140.932C168.391 141.029 168.922 140.916 169.361 140.614L187.602 128.077L187.815 128.387L187.602 128.077C188.042 127.775 188.337 127.321 188.434 126.797C188.531 126.273 188.418 125.742 188.116 125.303C187.815 124.864 187.36 124.568 186.836 124.471C186.713 124.449 186.59 124.437 186.468 124.437Z" fill="#2D2A2A"/>
<path d="M171.052 139.908L142.939 159.231C141.859 159.972 140.383 159.699 139.641 158.619C138.899 157.54 139.173 156.064 140.252 155.322L168.366 136C169.445 135.258 170.922 135.532 171.664 136.611C172.405 137.69 172.132 139.167 171.052 139.908Z" fill="white"/>
<path d="M141.601 160.025C141.433 160.025 141.263 160.009 141.094 159.978C140.373 159.844 139.746 159.438 139.33 158.833C138.472 157.584 138.79 155.87 140.039 155.012L168.152 135.689C169.401 134.832 171.115 135.149 171.973 136.398C172.831 137.646 172.514 139.36 171.265 140.218L143.151 159.541C142.688 159.859 142.151 160.025 141.601 160.025ZM169.705 135.958C169.305 135.958 168.915 136.078 168.579 136.31L140.465 155.632C139.558 156.255 139.328 157.5 139.951 158.406C140.253 158.846 140.708 159.141 141.232 159.238C141.755 159.335 142.286 159.222 142.725 158.92L170.839 139.599C171.745 138.975 171.976 137.73 171.353 136.824C171.051 136.385 170.596 136.089 170.072 135.992C169.95 135.97 169.827 135.958 169.705 135.958ZM171.052 139.908H171.054H171.052Z" fill="#2D2A2A"/>
<path d="M175.557 95.9722L160.251 106.492C159.231 107.193 158.765 108.463 159.089 109.658L166.038 135.227C166.303 136.204 167.454 136.626 168.288 136.053L183.594 125.533C184.615 124.832 185.081 123.562 184.756 122.367L177.808 96.798C177.542 95.8209 176.392 95.3987 175.557 95.9722Z" fill="white"/>
<path d="M167.461 136.69C167.246 136.69 167.03 136.652 166.819 136.575C166.25 136.366 165.833 135.911 165.674 135.326L158.726 109.756C158.36 108.409 158.887 106.973 160.037 106.182L175.344 95.6621L175.557 95.9721L175.344 95.6621C175.843 95.3187 176.456 95.2417 177.025 95.4504C177.594 95.6592 178.012 96.1144 178.171 96.6994L185.119 122.269C185.485 123.616 184.958 125.052 183.807 125.843L168.501 136.363C168.186 136.579 167.826 136.69 167.461 136.69ZM176.386 96.0884C176.17 96.0884 175.956 96.1543 175.77 96.2824L160.464 106.802C159.576 107.412 159.17 108.52 159.452 109.559L166.4 135.128C166.494 135.475 166.742 135.744 167.079 135.868C167.416 135.992 167.779 135.946 168.075 135.743L183.381 125.223C184.268 124.613 184.675 123.505 184.392 122.466L177.444 96.8967C177.35 96.5503 177.103 96.2807 176.766 96.1569C176.641 96.1112 176.513 96.0884 176.386 96.0884Z" fill="#2D2A2A"/>
<path d="M177.342 94.7454L162.036 105.265C161.015 105.967 160.549 107.236 160.874 108.431L167.822 134C168.088 134.977 169.238 135.399 170.073 134.826L185.379 124.306C186.399 123.605 186.865 122.336 186.541 121.141L179.593 95.5714C179.327 94.5943 178.176 94.1719 177.342 94.7454Z" fill="white"/>
<path d="M169.246 135.463C169.031 135.463 168.815 135.425 168.605 135.348C168.036 135.139 167.618 134.684 167.459 134.099L160.511 108.53C160.145 107.182 160.672 105.746 161.823 104.955L177.129 94.4353C177.628 94.0917 178.242 94.015 178.81 94.2236C179.379 94.4325 179.797 94.8876 179.956 95.4728L186.904 121.042C187.27 122.389 186.743 123.826 185.592 124.617L170.286 135.136C169.971 135.352 169.612 135.463 169.246 135.463ZM178.171 94.8618C177.955 94.8618 177.742 94.9275 177.555 95.0556L162.249 105.575C161.361 106.185 160.955 107.293 161.237 108.332L168.185 133.902C168.279 134.248 168.527 134.518 168.864 134.641C169.201 134.765 169.564 134.719 169.86 134.516L185.166 123.996C186.053 123.386 186.46 122.279 186.178 121.24L179.23 95.6702C179.135 95.3236 178.888 95.054 178.551 94.9301C178.426 94.8844 178.298 94.8618 178.171 94.8618ZM177.342 94.7454H177.344H177.342Z" fill="#2D2A2A"/>
<path d="M281 136.812V190.188H342V136.812H281ZM314.196 178.44C314.196 183.635 310.71 186.006 305.631 186.006C301.043 186.006 298.388 183.933 297.026 181.419L301.696 178.953C302.595 180.346 303.412 181.526 305.386 181.526C307.265 181.526 308.464 180.883 308.464 178.369V161.32H314.196V178.44ZM327.758 186.006C322.434 186.006 318.989 183.79 317.314 180.883L321.984 178.524C323.21 180.275 324.817 181.574 327.635 181.574C330.004 181.574 331.529 180.537 331.529 179.096C331.529 177.38 329.977 176.772 327.349 175.76L325.919 175.223C321.78 173.687 319.043 171.745 319.043 167.658C319.043 163.893 322.325 161.034 327.431 161.034C331.08 161.034 333.694 162.142 335.573 165.049L331.107 167.551C330.127 166.014 329.065 165.406 327.417 165.406C325.742 165.406 324.68 166.336 324.68 167.551C324.68 169.052 325.742 169.66 328.207 170.601L329.637 171.137C334.511 172.96 337.248 174.83 337.248 179.024C337.248 183.528 333.19 186.006 327.758 186.006Z" fill="#FFB400"/>
<path d="M269.443 55.6109C268.663 55.3508 267.882 55.1051 267.102 54.8738C267.232 54.3391 267.347 53.8043 267.463 53.2695C269.241 44.6555 268.07 37.7324 264.124 35.4488C260.323 33.2664 254.123 35.5355 247.85 40.9988C247.229 41.5336 246.621 42.0973 246.043 42.6609C245.653 42.2851 245.248 41.9094 244.844 41.548C238.268 35.709 231.677 33.2519 227.731 35.55C223.945 37.7469 222.817 44.2652 224.407 52.4168C224.566 53.2262 224.739 54.0211 224.942 54.8305C224.017 55.0906 223.106 55.3797 222.254 55.6832C214.536 58.357 209 62.5773 209 66.9422C209 71.4516 214.897 75.9754 222.918 78.7215C223.569 78.9383 224.219 79.1551 224.884 79.343C224.667 80.2101 224.479 81.0629 224.306 81.9445C222.788 89.966 223.973 96.3254 227.76 98.5078C231.663 100.762 238.224 98.45 244.612 92.8566C245.118 92.4086 245.624 91.9461 246.13 91.4547C246.766 92.0762 247.431 92.6687 248.096 93.2469C254.282 98.5656 260.395 100.719 264.168 98.5367C268.07 96.282 269.342 89.4457 267.694 81.1207C267.564 80.4848 267.42 79.8344 267.261 79.1695C267.723 79.0394 268.171 78.8949 268.619 78.7504C276.959 75.9898 283 71.5238 283 66.9422C283 62.5629 277.305 58.3137 269.443 55.6109ZM249.888 43.3402C255.264 38.6574 260.28 36.8219 262.563 38.1371C265.006 39.5391 265.945 45.2047 264.413 52.648C264.312 53.1394 264.211 53.6164 264.081 54.0934C260.872 53.3707 257.62 52.8504 254.354 52.5613C252.475 49.873 250.423 47.3004 248.197 44.8867C248.761 44.3519 249.31 43.8461 249.888 43.3402ZM233.166 74.4434C233.903 75.7008 234.654 76.9582 235.449 78.1867C233.195 77.941 230.954 77.5797 228.743 77.1027C229.379 75.0215 230.174 72.868 231.099 70.6711C231.764 71.943 232.443 73.2004 233.166 74.4434ZM228.786 57.0562C230.868 56.5937 233.079 56.218 235.377 55.9289C234.611 57.1285 233.859 58.357 233.151 59.6C232.443 60.8285 231.749 62.0859 231.099 63.3578C230.188 61.2043 229.422 59.0941 228.786 57.0562ZM232.746 67.0144C233.7 65.0199 234.741 63.0687 235.839 61.1465C236.938 59.2242 238.123 57.3598 239.366 55.5242C241.534 55.3652 243.745 55.2785 246 55.2785C248.255 55.2785 250.48 55.3652 252.634 55.5242C253.862 57.3453 255.033 59.2098 256.146 61.1176C257.259 63.0254 258.3 64.9766 259.282 66.9566C258.314 68.9512 257.273 70.9168 256.161 72.8535C255.062 74.7758 253.891 76.6402 252.663 78.4902C250.509 78.6492 248.269 78.7215 246 78.7215C243.731 78.7215 241.534 78.6492 239.409 78.5191C238.152 76.6836 236.967 74.8047 235.854 72.8824C234.741 70.9602 233.715 69.009 232.746 67.0144ZM258.849 74.4144C259.586 73.1426 260.28 71.8562 260.959 70.5555C261.884 72.6512 262.693 74.7758 263.402 76.9582C261.161 77.4641 258.892 77.8543 256.609 78.1144C257.389 76.9004 258.126 75.6574 258.849 74.4144ZM260.93 63.3578C260.251 62.0859 259.557 60.8141 258.834 59.5711C258.126 58.3426 257.389 57.1285 256.623 55.9289C258.95 56.218 261.176 56.6082 263.257 57.0851C262.592 59.2242 261.812 61.3055 260.93 63.3578ZM246.029 47.098C247.546 48.7457 248.977 50.4801 250.307 52.2723C247.445 52.1422 244.569 52.1422 241.707 52.2723C243.124 50.4078 244.584 48.6734 246.029 47.098ZM229.263 38.2383C231.691 36.8219 237.082 38.8453 242.763 43.875C243.124 44.193 243.485 44.5398 243.861 44.8867C241.621 47.3004 239.554 49.873 237.661 52.5613C234.394 52.8504 231.157 53.3562 227.948 54.0644C227.76 53.3273 227.601 52.5758 227.442 51.8242C226.084 44.8289 226.98 39.5535 229.263 38.2383ZM225.722 76.3367C225.115 76.1633 224.523 75.9754 223.93 75.773C220.852 74.8047 217.354 73.2726 214.825 71.2637C213.365 70.2519 212.382 68.691 212.107 66.9422C212.107 64.2973 216.675 60.9152 223.265 58.6172C224.089 58.3281 224.927 58.068 225.766 57.8223C226.748 60.9586 227.934 64.0371 229.307 67.0144C227.919 70.0351 226.72 73.157 225.722 76.3367ZM242.575 90.5008C240.19 92.6832 237.429 94.4176 234.423 95.6027C232.819 96.3687 230.969 96.441 229.321 95.7906C227.023 94.4609 226.069 89.359 227.37 82.4937C227.529 81.6844 227.702 80.875 227.905 80.0801C231.142 80.7738 234.409 81.2508 237.718 81.4965C239.626 84.1992 241.722 86.7863 243.962 89.2144C243.5 89.6625 243.037 90.0961 242.575 90.5008ZM246.116 86.9887C244.641 85.3988 243.167 83.6355 241.736 81.7422C243.124 81.8 244.555 81.8289 246 81.8289C247.489 81.8289 248.948 81.8 250.394 81.7277C249.064 83.5633 247.633 85.3121 246.116 86.9887ZM265.006 91.3246C264.876 93.0879 264.009 94.7355 262.621 95.8484C260.323 97.1781 255.423 95.4437 250.134 90.9055C249.527 90.3851 248.92 89.8215 248.298 89.2434C250.509 86.8008 252.547 84.2137 254.397 81.4965C257.707 81.2219 261.002 80.716 264.254 79.9789C264.399 80.5715 264.529 81.1641 264.645 81.7422C265.353 84.8641 265.468 88.116 265.006 91.3246ZM267.636 75.7875C267.232 75.9176 266.827 76.0476 266.408 76.1633C265.396 73.0125 264.153 69.934 262.722 66.9422C264.11 63.9937 265.28 60.9586 266.263 57.8512C267.015 58.068 267.738 58.2992 268.431 58.5305C275.166 60.843 279.893 64.2828 279.893 66.9133C279.893 69.7461 274.848 73.4027 267.636 75.7875ZM246 73.6195C249.657 73.6195 252.62 70.6566 252.62 67C252.62 63.3434 249.657 60.3805 246 60.3805C242.343 60.3805 239.38 63.3434 239.38 67C239.38 70.6566 242.343 73.6195 246 73.6195Z" fill="#609BC9"/>
<path d="M99 4.8125L104.271 64.3371L127.924 72.1875L151.729 64.3371L157 4.8125H99ZM145.551 24.0475H117.79L118.409 31.4768H144.932L142.878 53.7947L128.091 57.8553V57.9004H127.924L113.017 53.7947L112.11 42.3951H119.315L119.844 48.125L127.924 50.3057L136.035 48.125L136.942 38.7707H111.733L109.799 16.8738H146.216L145.551 24.0475Z" fill="#E24400"/>
<path d="M0 90.125L5.6349 153.515L31 161.875L56.3651 153.515L62 90.125H0ZM50.5526 102.938L49.7776 110.513L31.1615 118.409L31.113 118.425H49.1156L47.049 141.904L31.1937 146.5L15.2417 141.823L14.2083 129.988H22.1036L22.6203 136.122L31.113 138.252L39.9448 135.786L40.5422 125.92L13.6917 125.84V125.824L13.6594 125.84L13.0781 118.425L31.1776 110.945L32.2271 110.513H12.3839L11.4474 102.938H50.5526Z" fill="#0071CA"/>
<path d="M71.4462 263.286C71.404 263.37 71.3619 263.438 71.4462 263.286V263.286ZM106.48 251.051C103.652 251.05 100.861 251.7 98.3239 252.95C97.4942 251.276 96.6364 249.814 96.4958 248.717C96.327 247.437 96.1442 246.678 96.3411 245.159C96.538 243.64 97.4239 241.489 97.4098 241.334C97.3958 241.179 97.213 240.406 95.3989 240.392C93.5848 240.378 92.0239 240.743 91.8425 241.222C91.5221 242.095 91.2728 242.994 91.0972 243.908C90.7737 245.553 87.4705 251.431 85.6001 254.497C84.9814 253.301 84.4611 252.247 84.3486 251.403C84.1798 250.123 83.997 249.364 84.1939 247.845C84.3908 246.326 85.2767 244.175 85.2626 244.02C85.2486 243.865 85.0658 243.092 83.2531 243.078C81.4405 243.064 79.8781 243.429 79.6953 243.908C79.5125 244.386 79.3156 245.511 78.95 246.593C78.5844 247.676 74.1842 257.464 73.0325 260.009C72.4419 261.303 71.9356 262.343 71.57 263.047C71.5137 263.159 71.4715 263.229 71.4434 263.286C71.4856 263.215 71.5137 263.145 71.5137 263.173C71.2044 263.778 71.0215 264.115 71.0215 264.115V264.129C70.7825 264.579 70.5153 264.987 70.3887 264.987C70.3044 264.987 70.1215 263.806 70.4309 262.189C71.0919 258.786 72.6528 253.498 72.6387 253.315C72.6247 253.217 72.934 252.303 71.6122 251.811C70.3325 251.347 69.8684 252.12 69.7559 252.12C69.6434 252.12 69.5591 252.401 69.5591 252.401C69.5591 252.401 70.9794 246.439 66.8323 246.439C64.2448 246.439 60.6448 249.279 58.8758 251.853C57.7648 252.457 55.3601 253.765 52.8289 255.158C51.8586 255.692 50.8601 256.24 49.918 256.761C49.8476 256.69 49.7914 256.62 49.7211 256.55C44.6881 251.178 35.3956 247.381 35.7894 240.167C35.93 237.537 36.844 230.633 53.6586 222.251C67.4398 215.389 78.4578 217.273 80.3548 221.464C83.083 227.44 74.464 238.564 60.1526 240.167C54.6978 240.772 51.8305 238.662 51.1133 237.875C50.368 237.045 50.2555 237.003 49.9742 237.158C49.5101 237.411 49.8055 238.142 49.9742 238.578C50.3961 239.689 52.1539 241.658 55.1478 242.642C57.7775 243.5 64.1731 243.978 71.9061 240.983C80.5939 237.636 87.3565 228.312 85.3737 220.508C83.3544 212.576 70.2031 209.975 57.7676 214.39C50.3581 217.02 42.3453 221.154 36.5811 226.54C29.734 232.953 28.6386 238.536 29.0886 240.87C30.6903 249.153 42.1062 254.553 46.6751 258.547C46.4501 258.673 46.2392 258.786 46.0423 258.898C43.7515 260.037 35.0483 264.593 32.87 269.403C30.409 274.859 33.2778 278.768 35.1608 279.303C41.0375 280.934 47.0548 277.995 50.2878 273.172C53.5208 268.348 53.1284 262.048 51.6378 259.179C51.6237 259.137 51.5956 259.109 51.5815 259.067C52.1722 258.715 52.7769 258.364 53.3815 258.012C54.5473 257.323 55.6864 256.69 56.6848 256.142C56.1223 257.661 55.7145 259.489 55.5036 262.133C55.2505 265.226 56.5301 269.234 58.1895 270.809C58.9208 271.498 59.8053 271.512 60.3537 271.512C62.2944 271.512 63.1662 269.909 64.1351 267.997C65.3305 265.662 66.3851 262.948 66.3851 262.948C66.3851 262.948 65.0633 270.289 68.6773 270.289C69.9978 270.289 71.3197 268.587 71.9117 267.715V267.729C71.9117 267.729 71.9398 267.673 72.0101 267.561C72.1508 267.35 72.2211 267.223 72.2211 267.223V267.181C72.7555 266.267 73.9226 264.172 75.6791 260.712C77.9572 256.24 80.1355 250.658 80.1355 250.658C80.3459 251.885 80.6372 253.097 81.0073 254.286C81.4011 255.622 82.2308 257.084 82.8917 258.504C82.3573 259.236 82.0339 259.658 82.0339 259.658C82.0349 259.668 82.0399 259.678 82.048 259.686C81.6261 260.248 81.148 260.853 80.6558 261.443C78.8572 263.581 76.7183 266.028 76.437 266.731C76.0995 267.561 76.1839 268.179 76.8308 268.658C77.3089 269.023 78.1526 269.079 79.0372 269.009C80.6544 268.897 81.7934 268.503 82.3419 268.25C83.3529 267.887 84.3085 267.385 85.1811 266.759C86.9389 265.465 88.0076 263.609 87.9092 261.162C87.853 259.812 87.417 258.462 86.8826 257.197C87.0373 256.972 87.2061 256.733 87.3608 256.493C90.1437 252.429 92.2953 247.969 92.2953 247.969C92.5058 249.196 92.797 250.408 93.1672 251.597C93.5047 252.736 94.1642 253.988 94.7689 255.211C92.1547 257.334 90.5375 259.795 89.975 261.413C88.9344 264.408 89.75 265.758 91.2828 266.067C91.9719 266.208 92.9562 265.884 93.6875 265.575C94.7735 265.213 95.7975 264.687 96.7236 264.014C98.4814 262.72 100.182 260.906 100.069 258.445C100.027 257.334 99.7175 256.223 99.3097 255.155C101.517 254.227 104.385 253.72 108.041 254.142C115.871 255.056 117.404 259.95 117.109 261.989C116.813 264.028 115.168 265.167 114.62 265.505C114.071 265.842 113.902 265.969 113.945 266.222C114.015 266.588 114.268 266.573 114.732 266.489C115.379 266.377 118.837 264.83 118.992 261.047C119.217 256.266 114.62 251.006 106.476 251.048L106.48 251.051ZM46.1267 271.4C43.5406 274.226 39.9125 275.295 38.353 274.395C36.6795 273.422 37.3405 269.262 40.5312 266.25C42.4719 264.422 44.9736 262.734 46.633 261.694C47.0126 261.469 47.5611 261.131 48.2361 260.723C48.3486 260.653 48.4048 260.625 48.4048 260.625C48.5314 260.541 48.672 260.47 48.8126 260.386C49.9784 264.661 48.8548 268.43 46.1267 271.397V271.4ZM65.0211 258.547C64.1211 260.754 62.224 266.379 61.0709 266.084C60.0865 265.831 59.4819 261.542 60.8741 257.323C61.5772 255.2 63.0678 252.668 63.9537 251.684C65.3726 250.095 66.9336 249.589 67.2992 250.222C67.7914 251.051 65.5836 257.168 65.0211 258.547ZM80.6305 266C80.2508 266.197 79.8992 266.323 79.7305 266.225C79.6039 266.154 79.8851 265.887 79.8851 265.887C79.8851 265.887 81.8398 263.792 82.6133 262.836C83.0633 262.273 83.5836 261.612 84.1447 260.881C84.1447 260.951 84.1587 261.022 84.1587 261.106C84.1405 263.623 81.7231 265.325 80.6262 266H80.6305ZM92.6651 263.258C92.3839 263.061 92.4261 262.4 93.3683 260.347C93.7339 259.545 94.5762 258.195 96.0401 256.901C96.2059 257.391 96.296 257.903 96.3073 258.42C96.2933 261.584 94.0292 262.765 92.6665 263.258H92.6651Z" fill="#C718B5"/>
<g clip-path="url(#clip0)">
<path d="M241.744 286.332C241.744 286.605 241.429 286.824 241.031 286.824C240.579 286.865 240.264 286.646 240.264 286.332C240.264 286.059 240.579 285.84 240.977 285.84C241.388 285.799 241.744 286.018 241.744 286.332ZM237.481 285.717C237.385 285.99 237.659 286.305 238.07 286.387C238.427 286.523 238.838 286.387 238.92 286.113C239.002 285.84 238.742 285.525 238.331 285.402C237.974 285.307 237.577 285.443 237.481 285.717ZM243.54 285.484C243.143 285.58 242.869 285.84 242.91 286.154C242.951 286.428 243.307 286.605 243.719 286.51C244.116 286.414 244.39 286.154 244.349 285.881C244.308 285.621 243.938 285.443 243.54 285.484ZM252.561 233.094C233.546 233.094 219 247.49 219 266.453C219 281.615 228.569 294.59 242.238 299.156C243.993 299.471 244.61 298.391 244.61 297.502C244.61 296.654 244.569 291.979 244.569 289.107C244.569 289.107 234.972 291.158 232.956 285.033C232.956 285.033 231.394 281.055 229.145 280.029C229.145 280.029 226.006 277.883 229.365 277.924C229.365 277.924 232.778 278.197 234.656 281.451C237.659 286.729 242.69 285.211 244.651 284.309C244.966 282.121 245.857 280.604 246.844 279.701C239.181 278.854 231.448 277.746 231.448 264.594C231.448 260.834 232.49 258.947 234.684 256.541C234.327 255.652 233.162 251.988 235.04 247.258C237.906 246.369 244.5 250.949 244.5 250.949C247.242 250.184 250.19 249.787 253.11 249.787C256.03 249.787 258.977 250.184 261.719 250.949C261.719 250.949 268.314 246.355 271.179 247.258C273.057 252.002 271.892 255.652 271.535 256.541C273.729 258.961 275.073 260.848 275.073 264.594C275.073 277.787 266.998 278.84 259.334 279.701C260.595 280.781 261.665 282.832 261.665 286.045C261.665 290.652 261.623 296.354 261.623 297.475C261.623 298.363 262.254 299.443 263.995 299.129C277.705 294.59 287 281.615 287 266.453C287 247.49 271.577 233.094 252.561 233.094ZM232.326 280.248C232.148 280.385 232.189 280.699 232.422 280.959C232.641 281.178 232.956 281.273 233.135 281.096C233.313 280.959 233.272 280.645 233.039 280.385C232.819 280.166 232.504 280.07 232.326 280.248ZM230.845 279.141C230.749 279.318 230.886 279.537 231.16 279.674C231.38 279.811 231.654 279.77 231.75 279.578C231.846 279.4 231.709 279.182 231.435 279.045C231.16 278.963 230.941 279.004 230.845 279.141ZM235.287 284.008C235.068 284.186 235.15 284.596 235.465 284.855C235.781 285.17 236.178 285.211 236.356 284.992C236.535 284.814 236.452 284.404 236.178 284.145C235.877 283.83 235.465 283.789 235.287 284.008ZM233.724 281.998C233.505 282.135 233.505 282.49 233.724 282.805C233.944 283.119 234.314 283.256 234.492 283.119C234.711 282.941 234.711 282.586 234.492 282.271C234.3 281.957 233.944 281.82 233.724 281.998Z" fill="#684141"/>
</g>
<defs>
<clipPath id="clip0">
<rect width="68" height="70" fill="white" transform="translate(219 232)"/>
</clipPath>
</defs>
</svg>
