<svg width="199" height="36" viewBox="0 0 199 36" fill="none" xmlns="http://www.w3.org/2000/svg">
<path d="M12.696 7.696V24.176C12.696 26.0107 12.1307 27.4827 11 28.592C9.86933 29.68 8.376 30.224 6.52 30.224C4.64267 30.224 3.13867 29.6693 2.008 28.56C0.877333 27.4293 0.312 25.8933 0.312 23.952H3.224C3.24533 25.04 3.52267 25.9253 4.056 26.608C4.61067 27.2907 5.432 27.632 6.52 27.632C7.608 27.632 8.41867 27.312 8.952 26.672C9.48533 26.0107 9.752 25.1787 9.752 24.176V7.696H12.696ZM29.6008 18.512C30.4114 18.64 31.1474 18.9707 31.8088 19.504C32.4914 20.0373 33.0248 20.6987 33.4088 21.488C33.8141 22.2773 34.0168 23.12 34.0168 24.016C34.0168 25.1467 33.7288 26.1707 33.1528 27.088C32.5768 27.984 31.7341 28.6987 30.6248 29.232C29.5368 29.744 28.2461 30 26.7528 30H18.4328V7.696H26.4328C27.9474 7.696 29.2381 7.952 30.3048 8.464C31.3714 8.95467 32.1714 9.62667 32.7048 10.48C33.2381 11.3333 33.5048 12.2933 33.5048 13.36C33.5048 14.6827 33.1421 15.7813 32.4167 16.656C31.7128 17.5093 30.7741 18.128 29.6008 18.512ZM21.3448 17.328H26.2408C27.6061 17.328 28.6621 17.008 29.4088 16.368C30.1554 15.728 30.5288 14.8427 30.5288 13.712C30.5288 12.5813 30.1554 11.696 29.4088 11.056C28.6621 10.416 27.5848 10.096 26.1768 10.096H21.3448V17.328ZM26.4968 27.6C27.9474 27.6 29.0781 27.2587 29.8888 26.576C30.6994 25.8933 31.1048 24.944 31.1048 23.728C31.1048 22.4907 30.6781 21.52 29.8248 20.816C28.9714 20.0907 27.8301 19.728 26.4008 19.728H21.3448V27.6H26.4968Z" fill="#006DC3"/>
<path d="M45.5458 35.952C43.4978 33.9467 41.8978 31.3973 40.7458 28.304C39.6151 25.2107 39.0498 21.872 39.0498 18.288C39.0498 14.6187 39.6471 11.1947 40.8418 8.016C42.0578 4.816 43.7858 2.18133 46.0258 0.112H49.0658V0.399998C46.6764 2.64 44.8738 5.33867 43.6578 8.496C42.4631 11.632 41.8658 14.896 41.8658 18.288C41.8658 21.5947 42.4311 24.752 43.5618 27.76C44.7138 30.768 46.3884 33.4027 48.5858 35.664V35.952H45.5458ZM179.349 35.952V35.664C181.546 33.4027 183.21 30.768 184.341 27.76C185.493 24.752 186.069 21.5947 186.069 18.288C186.069 14.896 185.461 11.632 184.245 8.496C183.05 5.33867 181.258 2.64 178.868 0.399998V0.112H181.909C184.149 2.18133 185.866 4.816 187.061 8.016C188.277 11.1947 188.885 14.6187 188.885 18.288C188.885 21.872 188.309 25.2107 187.157 28.304C186.026 31.3973 184.437 33.9467 182.389 35.952H179.349Z" fill="white"/>
<path d="M54.157 14.96H50.893L53.965 7.696H56.045L54.157 14.96ZM59.341 14.96H56.077L59.149 7.696H61.229L59.341 14.96ZM168.568 7.696H171.8L168.728 14.96H166.68L168.568 7.696ZM173.752 7.696H176.984L173.912 14.96H171.832L173.752 7.696ZM196.504 16.464C195.949 16.464 195.48 16.272 195.096 15.888C194.712 15.504 194.52 15.0347 194.52 14.48C194.52 13.9253 194.712 13.456 195.096 13.072C195.48 12.688 195.949 12.496 196.504 12.496C197.037 12.496 197.485 12.688 197.848 13.072C198.232 13.456 198.424 13.9253 198.424 14.48C198.424 15.0347 198.232 15.504 197.848 15.888C197.485 16.272 197.037 16.464 196.504 16.464ZM198.616 25.968L195.032 34.576H193.08L195.416 25.968H198.616Z" fill="#E24400"/>
<path d="M63.6573 18.832C63.6573 16.656 64.1479 14.704 65.1293 12.976C66.1106 11.2267 67.4439 9.86133 69.1293 8.88C70.8359 7.89867 72.7239 7.408 74.7933 7.408C77.2253 7.408 79.3479 7.99467 81.1613 9.168C82.9746 10.3413 84.2973 12.0053 85.1293 14.16H81.6413C81.0226 12.816 80.1266 11.7813 78.9533 11.056C77.8013 10.3307 76.4146 9.968 74.7933 9.968C73.2359 9.968 71.8386 10.3307 70.6013 11.056C69.3639 11.7813 68.3933 12.816 67.6893 14.16C66.9853 15.4827 66.6333 17.04 66.6333 18.832C66.6333 20.6027 66.9853 22.16 67.6893 23.504C68.3933 24.8267 69.3639 25.8507 70.6013 26.576C71.8386 27.3013 73.2359 27.664 74.7933 27.664C76.4146 27.664 77.8013 27.312 78.9533 26.608C80.1266 25.8827 81.0226 24.848 81.6413 23.504H85.1293C84.2973 25.6373 82.9746 27.2907 81.1613 28.464C79.3479 29.616 77.2253 30.192 74.7933 30.192C72.7239 30.192 70.8359 29.712 69.1293 28.752C67.4439 27.7707 66.1106 26.416 65.1293 24.688C64.1479 22.96 63.6573 21.008 63.6573 18.832ZM97.112 30.288C95.4693 30.288 93.976 29.9147 92.632 29.168C91.3093 28.4213 90.264 27.3653 89.496 26C88.7493 24.6133 88.376 23.0133 88.376 21.2C88.376 19.408 88.76 17.8293 89.528 16.464C90.3173 15.0773 91.384 14.0213 92.728 13.296C94.072 12.5493 95.576 12.176 97.24 12.176C98.904 12.176 100.408 12.5493 101.752 13.296C103.096 14.0213 104.152 15.0667 104.92 16.432C105.709 17.7973 106.104 19.3867 106.104 21.2C106.104 23.0133 105.699 24.6133 104.888 26C104.099 27.3653 103.021 28.4213 101.656 29.168C100.291 29.9147 98.776 30.288 97.112 30.288ZM97.112 27.728C98.1573 27.728 99.1387 27.4827 100.056 26.992C100.973 26.5013 101.709 25.7653 102.264 24.784C102.84 23.8027 103.128 22.608 103.128 21.2C103.128 19.792 102.851 18.5973 102.296 17.616C101.741 16.6347 101.016 15.9093 100.12 15.44C99.224 14.9493 98.2533 14.704 97.208 14.704C96.1413 14.704 95.16 14.9493 94.264 15.44C93.3893 15.9093 92.6853 16.6347 92.152 17.616C91.6187 18.5973 91.352 19.792 91.352 21.2C91.352 22.6293 91.608 23.8347 92.12 24.816C92.6533 25.7973 93.3573 26.5333 94.232 27.024C95.1067 27.4933 96.0667 27.728 97.112 27.728ZM108.845 21.168C108.845 19.376 109.207 17.808 109.933 16.464C110.658 15.0987 111.65 14.0427 112.909 13.296C114.189 12.5493 115.618 12.176 117.197 12.176C118.562 12.176 119.831 12.496 121.005 13.136C122.178 13.7547 123.074 14.576 123.693 15.6V6.32H126.637V30H123.693V26.704C123.117 27.7493 122.263 28.6133 121.133 29.296C120.002 29.9573 118.679 30.288 117.165 30.288C115.607 30.288 114.189 29.904 112.909 29.136C111.65 28.368 110.658 27.2907 109.933 25.904C109.207 24.5173 108.845 22.9387 108.845 21.168ZM123.693 21.2C123.693 19.8773 123.426 18.7253 122.893 17.744C122.359 16.7627 121.634 16.016 120.717 15.504C119.821 14.9707 118.829 14.704 117.741 14.704C116.653 14.704 115.661 14.96 114.765 15.472C113.869 15.984 113.154 16.7307 112.621 17.712C112.087 18.6933 111.821 19.8453 111.821 21.168C111.821 22.512 112.087 23.6853 112.621 24.688C113.154 25.6693 113.869 26.4267 114.765 26.96C115.661 27.472 116.653 27.728 117.741 27.728C118.829 27.728 119.821 27.472 120.717 26.96C121.634 26.4267 122.359 25.6693 122.893 24.688C123.426 23.6853 123.693 22.5227 123.693 21.2ZM147.558 20.56C147.558 21.1147 147.526 21.7013 147.462 22.32H133.446C133.552 24.048 134.139 25.4027 135.206 26.384C136.294 27.344 137.606 27.824 139.142 27.824C140.4 27.824 141.446 27.536 142.278 26.96C143.131 26.3627 143.728 25.5733 144.07 24.592H147.206C146.736 26.2773 145.798 27.6533 144.39 28.72C142.982 29.7653 141.232 30.288 139.142 30.288C137.478 30.288 135.984 29.9147 134.662 29.168C133.36 28.4213 132.336 27.3653 131.59 26C130.843 24.6133 130.47 23.0133 130.47 21.2C130.47 19.3867 130.832 17.7973 131.558 16.432C132.283 15.0667 133.296 14.0213 134.598 13.296C135.92 12.5493 137.435 12.176 139.142 12.176C140.806 12.176 142.278 12.5387 143.558 13.264C144.838 13.9893 145.819 14.992 146.502 16.272C147.206 17.5307 147.558 18.96 147.558 20.56ZM144.55 19.952C144.55 18.8427 144.304 17.8933 143.814 17.104C143.323 16.2933 142.651 15.6853 141.798 15.28C140.966 14.8533 140.038 14.64 139.014 14.64C137.542 14.64 136.283 15.1093 135.238 16.048C134.214 16.9867 133.627 18.288 133.478 19.952H144.55ZM157.61 30.288C156.266 30.288 155.06 30.064 153.994 29.616C152.927 29.1467 152.084 28.5067 151.466 27.696C150.847 26.864 150.506 25.9147 150.442 24.848H153.45C153.535 25.7227 153.94 26.4373 154.666 26.992C155.412 27.5467 156.383 27.824 157.578 27.824C158.687 27.824 159.562 27.5787 160.202 27.088C160.842 26.5973 161.162 25.9787 161.162 25.232C161.162 24.464 160.82 23.8987 160.138 23.536C159.455 23.152 158.399 22.7787 156.97 22.416C155.668 22.0747 154.602 21.7333 153.77 21.392C152.959 21.0293 152.255 20.5067 151.658 19.824C151.082 19.12 150.794 18.2027 150.794 17.072C150.794 16.176 151.06 15.3547 151.594 14.608C152.127 13.8613 152.884 13.2747 153.866 12.848C154.847 12.4 155.967 12.176 157.226 12.176C159.167 12.176 160.735 12.6667 161.93 13.648C163.124 14.6293 163.764 15.9733 163.85 17.68H160.938C160.874 16.7627 160.5 16.0267 159.818 15.472C159.156 14.9173 158.26 14.64 157.13 14.64C156.084 14.64 155.252 14.864 154.634 15.312C154.015 15.76 153.706 16.3467 153.706 17.072C153.706 17.648 153.887 18.128 154.25 18.512C154.634 18.8747 155.103 19.1733 155.658 19.408C156.234 19.6213 157.023 19.8667 158.026 20.144C159.284 20.4853 160.308 20.8267 161.098 21.168C161.887 21.488 162.559 21.9787 163.114 22.64C163.69 23.3013 163.988 24.1653 164.01 25.232C164.01 26.192 163.743 27.056 163.21 27.824C162.676 28.592 161.919 29.2 160.938 29.648C159.978 30.0747 158.868 30.288 157.61 30.288Z" fill="#FFB400"/>
</svg>
