<svg width="52" height="127" viewBox="0 0 52 127" fill="none" xmlns="http://www.w3.org/2000/svg">
<g clip-path="url(#clip0)">
<path d="M22.6176 49.872V74.7934H51.0992V49.872H22.6176ZM38.1171 69.3085C38.1171 71.7339 36.4896 72.8409 34.1183 72.8409C31.9758 72.8409 30.7361 71.8729 30.1003 70.6992L32.281 69.5477C32.7006 70.1985 33.082 70.7492 34.0038 70.7492C34.8812 70.7492 35.4406 70.4488 35.4406 69.2751V61.3147H38.1171V69.3085ZM44.4492 72.8409C41.9634 72.8409 40.355 71.8062 39.573 70.4488L41.7536 69.3474C42.3258 70.1651 43.076 70.7715 44.392 70.7715C45.4982 70.7715 46.2103 70.2875 46.2103 69.6144C46.2103 68.8134 45.4855 68.5297 44.2585 68.0568L43.591 67.8065C41.6583 67.0889 40.3804 66.1822 40.3804 64.2741C40.3804 62.5163 41.9126 61.1812 44.2966 61.1812C46.0005 61.1812 47.2211 61.6985 48.0984 63.0559L46.0132 64.2241C45.5554 63.5065 45.0595 63.2228 44.2903 63.2228C43.5083 63.2228 43.0124 63.6567 43.0124 64.2241C43.0124 64.925 43.5083 65.2087 44.659 65.6481L45.3266 65.8985C47.6025 66.7496 48.8804 67.6229 48.8804 69.581C48.8804 71.6838 46.9859 72.8409 44.4492 72.8409Z" fill="#FFB400"/>
</g>
<g clip-path="url(#clip1)">
<path d="M17.2215 11.958C16.8571 11.8366 16.4927 11.7219 16.1283 11.6139C16.189 11.3642 16.243 11.1145 16.297 10.8648C17.1271 6.84281 16.5804 3.61036 14.7382 2.54412C12.9633 1.52512 10.0683 2.58461 7.13953 5.13548C6.84935 5.38517 6.56592 5.64835 6.29598 5.91154C6.11378 5.73608 5.92483 5.56063 5.73587 5.39192C2.66538 2.66559 -0.41186 1.51837 -2.25416 2.59136C-4.02222 3.61711 -4.54859 6.6606 -3.80627 10.4667C-3.73204 10.8446 -3.65106 11.2157 -3.55659 11.5936C-3.98848 11.7151 -4.41362 11.8501 -4.81178 11.9918C-8.41539 13.2402 -11 15.2107 -11 17.2487C-11 19.3542 -8.24668 21.4665 -4.50135 22.7486C-4.19768 22.8499 -3.894 22.9511 -3.58358 23.0388C-3.6848 23.4437 -3.77253 23.8419 -3.85351 24.2535C-4.56209 27.9988 -4.00872 30.9681 -2.24066 31.9871C-0.41861 33.0398 2.64513 31.9601 5.6279 29.3485C5.86409 29.1393 6.10028 28.9234 6.33647 28.6939C6.6334 28.9841 6.94382 29.2608 7.25425 29.5307C10.1425 32.0141 12.9971 33.0196 14.7584 32.0006C16.5805 30.9479 17.1743 27.7559 16.405 23.8689C16.3443 23.5719 16.2768 23.2683 16.2025 22.9578C16.4185 22.8971 16.6277 22.8296 16.8369 22.7621C20.7307 21.4732 23.5515 19.388 23.5515 17.2487C23.5515 15.204 20.8926 13.22 17.2215 11.958ZM8.09104 6.22871C10.6014 4.04225 12.9431 3.18521 14.0093 3.79931C15.1498 4.4539 15.5884 7.09925 14.8731 10.5746C14.8259 10.8041 14.7786 11.0268 14.7179 11.2495C13.2198 10.9121 11.7014 10.6691 10.1763 10.5341C9.29899 9.27896 8.34073 8.07775 7.30149 6.95078C7.56467 6.70109 7.82111 6.4649 8.09104 6.22871ZM0.283217 20.7511C0.627382 21.3382 0.978296 21.9253 1.34945 22.4989C0.296714 22.3842 -0.749277 22.2155 -1.78177 21.9928C-1.48485 21.0211 -1.11369 20.0156 -0.681795 18.9898C-0.371371 19.5837 -0.0541992 20.1708 0.283217 20.7511ZM-1.76153 12.6329C-0.789768 12.4169 0.242727 12.2415 1.31571 12.1065C0.958051 12.6666 0.607138 13.2402 0.276469 13.8206C-0.0541992 14.3942 -0.378119 14.9813 -0.681795 15.5752C-1.10694 14.5697 -1.4646 13.5844 -1.76153 12.6329ZM0.0875158 17.2825C0.532907 16.3512 1.01879 15.4402 1.53166 14.5427C2.04453 13.6451 2.5979 12.7746 3.17825 11.9176C4.1905 11.8433 5.223 11.8028 6.27574 11.8028C7.32848 11.8028 8.36772 11.8433 9.37323 11.9176C9.94683 12.7678 10.4935 13.6384 11.0131 14.5292C11.5327 15.4199 12.0186 16.331 12.4775 17.2555C12.0253 18.1868 11.5394 19.1045 11.0198 20.0088C10.5069 20.9063 9.96033 21.7769 9.38672 22.6407C8.38122 22.7149 7.33523 22.7486 6.27574 22.7486C5.21625 22.7486 4.1905 22.7149 3.1985 22.6542C2.61139 21.7971 2.05803 20.9198 1.53841 20.0223C1.01879 19.1248 0.539655 18.2138 0.0875158 17.2825ZM12.275 20.7376C12.6192 20.1438 12.9431 19.5432 13.2603 18.9358C13.6922 19.9143 14.0701 20.9063 14.4007 21.9253C13.3547 22.1615 12.2953 22.3437 11.229 22.4652C11.5934 21.8983 11.9376 21.318 12.275 20.7376ZM13.2468 15.5752C12.9296 14.9813 12.6057 14.3874 12.2683 13.8071C11.9376 13.2335 11.5934 12.6666 11.2358 12.1065C12.3222 12.2415 13.3615 12.4237 14.3333 12.6464C14.0228 13.6451 13.6584 14.6169 13.2468 15.5752ZM6.28924 7.98328C6.99781 8.75259 7.6659 9.56239 8.28674 10.3992C6.95057 10.3384 5.60765 10.3384 4.27148 10.3992C4.93282 9.52865 5.6144 8.71885 6.28924 7.98328ZM-1.53883 3.84655C-0.405113 3.18521 2.11202 4.12998 4.76411 6.4784C4.93282 6.62686 5.10153 6.78882 5.27699 6.95078C4.23099 8.07775 3.26598 9.27896 2.38195 10.5341C0.856826 10.6691 -0.6548 10.9053 -2.15293 11.236C-2.24066 10.8918 -2.31489 10.5409 -2.38912 10.19C-3.02347 6.92379 -2.60507 4.46065 -1.53883 3.84655ZM-3.19218 21.6352C-3.47561 21.5542 -3.75229 21.4665 -4.02897 21.372C-5.46636 20.9198 -7.09946 20.2045 -8.28042 19.2665C-8.962 18.7941 -9.42089 18.0653 -9.54911 17.2487C-9.54911 16.0138 -7.41663 14.4347 -4.33939 13.3617C-3.95474 13.2267 -3.56333 13.1053 -3.17193 12.9905C-2.71304 14.4549 -2.15968 15.8923 -1.51859 17.2825C-2.16643 18.6929 -2.72654 20.1505 -3.19218 21.6352ZM4.67638 28.2485C3.56291 29.2675 2.27398 30.0773 0.870322 30.6307C0.121257 30.9884 -0.742529 31.0221 -1.51184 30.7184C-2.58482 30.0976 -3.03022 27.7154 -2.42286 24.51C-2.34863 24.132 -2.26765 23.7541 -2.17318 23.383C-0.66155 23.7069 0.863574 23.9296 2.40894 24.0443C3.29972 25.3063 4.27823 26.5142 5.32422 27.6479C5.10828 27.8571 4.89233 28.0596 4.67638 28.2485ZM6.32973 26.6087C5.6414 25.8664 4.95307 25.0431 4.28498 24.159C4.93282 24.186 5.60091 24.1995 6.27574 24.1995C6.97082 24.1995 7.6524 24.186 8.32723 24.1523C7.70639 25.0093 7.0383 25.8259 6.32973 26.6087ZM15.1498 28.6332C15.0891 29.4565 14.6842 30.2258 14.0363 30.7454C12.9633 31.3663 10.6757 30.5565 8.20576 28.4375C7.92233 28.1945 7.6389 27.9314 7.34872 27.6614C8.38122 26.521 9.33274 25.313 10.1965 24.0443C11.7419 23.9161 13.2805 23.6799 14.7989 23.3357C14.8664 23.6124 14.9271 23.8891 14.9811 24.159C15.3118 25.6167 15.3657 27.1351 15.1498 28.6332ZM16.378 21.3787C16.189 21.4395 16.0001 21.5002 15.8044 21.5542C15.332 20.083 14.7516 18.6456 14.0836 17.2487C14.7314 15.8721 15.278 14.4549 15.7369 13.004C16.0878 13.1053 16.4252 13.2132 16.7492 13.3212C19.8939 14.4009 22.1006 16.007 22.1006 17.2352C22.1006 18.5579 19.7454 20.2652 16.378 21.3787ZM6.27574 20.3665C7.98307 20.3665 9.36648 18.9831 9.36648 17.2757C9.36648 15.5684 7.98307 14.185 6.27574 14.185C4.56841 14.185 3.185 15.5684 3.185 17.2757C3.185 18.9831 4.56841 20.3665 6.27574 20.3665Z" fill="#609BC9"/>
</g>
<g clip-path="url(#clip2)">
<path d="M4.2888 119.684C4.2888 119.812 4.14157 119.914 3.95593 119.914C3.74469 119.933 3.59747 119.831 3.59747 119.684C3.59747 119.557 3.74469 119.455 3.93033 119.455C4.12237 119.435 4.2888 119.538 4.2888 119.684ZM2.29802 119.397C2.25321 119.525 2.38124 119.672 2.57327 119.71C2.73971 119.774 2.93174 119.71 2.97015 119.582C3.00856 119.455 2.88693 119.308 2.6949 119.25C2.52846 119.206 2.34283 119.27 2.29802 119.397ZM5.12736 119.289C4.94172 119.333 4.8137 119.455 4.8329 119.601C4.8521 119.729 5.01854 119.812 5.21057 119.767C5.39621 119.723 5.52423 119.601 5.50503 119.474C5.48582 119.352 5.31299 119.27 5.12736 119.289ZM9.33935 94.8269C0.460874 94.8269 -6.33081 101.549 -6.33081 110.403C-6.33081 117.482 -1.86277 123.54 4.51924 125.672C5.3386 125.819 5.62665 125.315 5.62665 124.9C5.62665 124.504 5.60745 122.321 5.60745 120.98C5.60745 120.98 1.1266 121.938 0.185622 119.078C0.185622 119.078 -0.544116 117.22 -1.59391 116.742C-1.59391 116.742 -3.05979 115.739 -1.4915 115.759C-1.4915 115.759 0.102406 115.886 0.979372 117.406C2.38124 119.87 4.73048 119.161 5.64585 118.74C5.79308 117.718 6.20916 117.01 6.67005 116.588C3.09177 116.193 -0.518511 115.676 -0.518511 109.535C-0.518511 107.779 -0.0320196 106.898 0.992174 105.775C0.825743 105.36 0.28164 103.649 1.15861 101.44C2.49646 101.025 5.57544 103.164 5.57544 103.164C6.85568 102.806 8.23194 102.621 9.5954 102.621C10.9589 102.621 12.3351 102.806 13.6154 103.164C13.6154 103.164 16.6943 101.019 18.0322 101.44C18.9092 103.655 18.3651 105.36 18.1986 105.775C19.2228 106.905 19.8501 107.785 19.8501 109.535C19.8501 115.695 16.0798 116.186 12.5016 116.588C13.0905 117.093 13.5898 118.05 13.5898 119.55C13.5898 121.702 13.5706 124.364 13.5706 124.887C13.5706 125.302 13.865 125.806 14.678 125.659C21.0792 123.54 25.4192 117.482 25.4192 110.403C25.4192 101.549 18.2178 94.8269 9.33935 94.8269ZM-0.108834 116.844C-0.19205 116.908 -0.172846 117.054 -0.0640254 117.176C0.038394 117.278 0.185621 117.323 0.268837 117.24C0.352053 117.176 0.33285 117.029 0.224029 116.908C0.12161 116.805 -0.0256186 116.761 -0.108834 116.844ZM-0.800165 116.327C-0.844973 116.41 -0.780962 116.512 -0.652937 116.576C-0.550518 116.639 -0.422493 116.62 -0.377685 116.531C-0.332877 116.448 -0.396889 116.346 -0.524913 116.282C-0.652937 116.244 -0.755356 116.263 -0.800165 116.327ZM1.27383 118.599C1.17141 118.682 1.20982 118.874 1.35704 118.995C1.50427 119.142 1.68991 119.161 1.77312 119.059C1.85634 118.976 1.81793 118.784 1.68991 118.663C1.54908 118.516 1.35704 118.497 1.27383 118.599ZM0.544089 117.661C0.44167 117.725 0.44167 117.891 0.544089 118.037C0.646509 118.184 0.819341 118.248 0.902557 118.184C1.00498 118.101 1.00498 117.935 0.902557 117.789C0.81294 117.642 0.646509 117.578 0.544089 117.661Z" fill="#684141"/>
</g>
<defs>
<clipPath id="clip0">
<rect width="28.4816" height="28.4816" fill="white" transform="translate(22.6176 48.0919)"/>
</clipPath>
<clipPath id="clip1">
<rect width="34.5515" height="34.5515" fill="white" transform="translate(-11)"/>
</clipPath>
<clipPath id="clip2">
<rect width="31.75" height="32.6838" fill="white" transform="translate(-6.33081 94.3162)"/>
</clipPath>
</defs>
</svg>
